<svg xmlns="http://www.w3.org/2000/svg"><symbol id="brachiosaurus" viewBox="0 0 256 256"><path fill="#231f20" d="M58.6 167a38.9 38.9 0 0 0-7.8.8v.2c0 .3.3.6.8 1a12.3 12.3 0 0 0 2 1l2.7 1 2.8.9 2.4.6 1.5.2h2.1l2.6-.4 2.4-.9a5 5 0 0 0 1.7-1.5 29.3 29.3 0 0 0-6.5-2.2 29.9 29.9 0 0 0-6.7-.7z"/><path fill="#231f20" d="M128-.3a128 128 0 1 0 128 128A128 128 0 0 0 128-.3zm83.5 70.6v.3a8.8 8.8 0 0 1-.1 1.4c-.2.7-.2 1.4-.4 2.1s-.2 1.5-.3 2.1-.2 1.1-.2 1.4a16.2 16.2 0 0 0-1 1.8l-.6 2-.6 2a15.9 15.9 0 0 1-.7 2l-1.7 3.1a21.1 21.1 0 0 0-1.6 3l-20.1 27.9-.2.6-.3.3-.3.3a1.1 1.1 0 0 0-.4.5l-1.7 2.2-2.1 2.9c-.7 1.1-1.4 2.2-2.2 3.3s-1.4 2.2-2 3.3-1 2.1-1.4 3a8 8 0 0 0-.5 2.3c0 .3-.2.5-.2.7s.2.5.2.7a.3.3 0 0 0-.3.3.5.5 0 0 0 .3.5v10.2a2.2 2.2 0 0 1-.3 1l-.3 1.2a6.7 6.7 0 0 0-.6 1.2 3.4 3.4 0 0 0-.5 1.1v1.7a.5.5 0 0 1 0 .4c-.2.3-.2.5-.4.8l-.7.8a1.1 1.1 0 0 1-.6.4v.4c0 .1.7.3.8.5s.9.3.9.4v2.8a22.5 22.5 0 0 1-.6 3.6c-.2 1.2-.6 2.3-.8 3.5s-.5 2.4-.7 3.5-.3 2.4-.3 3.6.1 4.2.3 6.3a42.3 42.3 0 0 0 1.1 6.2 28.6 28.6 0 0 0 2.1 5.8 25.6 25.6 0 0 0 3.5 5.3 7.4 7.4 0 0 1-1.3.8l-1.7.7-1.7.5h-1.9l-1.1-.2-1.2-.3-1-.2h-.7l-.8-.3-.6-.5a1.5 1.5 0 0 1-.3-.7 28.1 28.1 0 0 0 .1-4.1 31.1 31.1 0 0 0-.3-4.3c-.1-1.4-.3-2.9-.5-4.3s-.4-2.8-.5-4.1-.1-.3-.2-.7l-.3-.6c.1-1.1.1-2.3.2-3.6s-.1-2.7-.2-4.1a25.7 25.7 0 0 0-.6-4 11.6 11.6 0 0 0-1.4-3.4 3.5 3.5 0 0 0-1.5 1.8 17.6 17.6 0 0 0-.7 2.7c-.3 1-.2 2-.5 2.9a15.3 15.3 0 0 0-.9 2.4v7.6c0 2.8-.2 5.6-.1 8.3s.2 5.5.5 8.3l.5.3.8.6.8.7a1.3 1.3 0 0 1 .3.7c0 .2-.2.5-.8.8a7.5 7.5 0 0 1-1.8.8l-2.1.9-1.3.4h-.2l-4.7-2.6a.5.5 0 0 1-.3-.5v-.7a14.5 14.5 0 0 1 .1-3 29.1 29.1 0 0 0 .1-3.1c0-1.2-.2-2.5-.3-3.8l-.6-3.7-.6-3.8a25.6 25.6 0 0 1-.3-3.9c0-1.3.1-2.4.1-3.4a27 27 0 0 1 .4-2.8c.2-.9.3-1.8.5-2.8s.4-2 .7-3.2a2 2 0 0 0-.1-.7c0-.4-.1-.6-.1-.8l-1.9.3-1.8.5-2 .6-1.9.5-1.4.2h-1c-.4.1-.7-.1-1-.1H134a46 46 0 0 1-5.3-.1h-7.8a4 4 0 0 0-2.3.8v5.3c-.1 1.7-.1 3.4-.2 5.1l-.3 5.1c0 1.8-.1 3.5-.1 5.3v5.1c0 .5.7 1.1 1.1 1.7a11.5 11.5 0 0 1 1.4 1.7 9.4 9.4 0 0 1 1.2 1.8 3.2 3.2 0 0 1 .6 1.8v.4a11 11 0 0 1-4.1.4c.1.4 0 .7-.2.8h-2.7a8.5 8.5 0 0 1-2.3-.3 3.7 3.7 0 0 1-1.8-.8 2.4 2.4 0 0 1-.8-1.9c0-.4.1-.8.1-1.3a6.5 6.5 0 0 1 .4-1.3l.3-1.3a6.6 6.6 0 0 0 .1-1.4 24.7 24.7 0 0 0-.3-3.9c-.1-1.2-.4-2.4-.6-3.6s-.6-2.7-.9-3.8a32.7 32.7 0 0 1-.7-4h-.4c-.2 0-.4.7-.5.9s-.3.5-.4.7l-.4.5-1.5 2.3a18.2 18.2 0 0 0-1.5 2.3 25.6 25.6 0 0 0-1.1 2.4 8.4 8.4 0 0 0-.4 2.7 5.1 5.1 0 0 0 .3 1.7l.8 1.5.7 1.2.3.5a.9.9 0 0 1-.4.8l-1 .4-1.3.3h-4.5l-1.1-.4a2.2 2.2 0 0 1-.7-.9 5 5 0 0 1-.5-1.6l-.6-1.6a9.9 9.9 0 0 1-.2-1.7 2.8 2.8 0 0 1 .4-1.5l.9-1.6 1.1-1.6a5.5 5.5 0 0 0 .8-1.5c.9-1.9 1.7-3.9 2.5-5.9s1.6-4 2.5-5.9l.4-.8.6-.7a2 2 0 0 0 .4-.8 1.9 1.9 0 0 0 .2-.8q0-.6-.3-.6h-1.3l-9.1 2.4a3.2 3.2 0 0 1-1.3.6l-1.8.4-1.6.5a1.4 1.4 0 0 0-.7 1.1 1.2 1.2 0 0 0 .3.9l.7.7.8.5.7.6-.4.5-1.2-.9-1.5-.8a4.7 4.7 0 0 0-1.5-.6 4 4 0 0 0-1.5-.3 13.1 13.1 0 0 0-3.8.6l-4 1.1-4.1 1.1a15.4 15.4 0 0 1-4.3.6l-3.5-.4-4.9-1.2c-1.8-.5-3.6-1-5.5-1.7a46.7 46.7 0 0 1-5-2.3 15.4 15.4 0 0 1-3.7-2.7 4.2 4.2 0 0 1-1.4-3 4.4 4.4 0 0 1 1.1-3.3 6.4 6.4 0 0 1 2.8-1.6c1.1-.4 2.2-.1 3.5-.2s2.3.4 3.3.4h4c.2 0 .6-.4 1.3-.3a23.2 23.2 0 0 1 2.4.2l2.6.3 1.9.2a6.6 6.6 0 0 1 2 .6l1.8.8 1.8.8a7.1 7.1 0 0 0 2.1.3 9.1 9.1 0 0 0 4-1 35.4 35.4 0 0 0 4.1-2.6 41.6 41.6 0 0 0 3.9-3.2l3.3-2.7 1.9-1.2L94 156a10.9 10.9 0 0 0 1.7-1.3 6.1 6.1 0 0 0 1.5-1.7q1.5-2.2 2.7-4.5a20.7 20.7 0 0 1 2.7-4.5 8.6 8.6 0 0 1 1.3-1.4l1.5-1 1.7-.8 1.6-1a33.2 33.2 0 0 0 3.6-2.6l3.5-2.9 3.4-3.1 3.5-2.9a23.6 23.6 0 0 1 3.8-2.2l3.9-1.8 2.5-1.3 2.5-1.4 2.6-1.1a13.8 13.8 0 0 1 2.7-.8l22.6-3.2a13.2 13.2 0 0 0 3.5-1.2 17.9 17.9 0 0 0 3.4-2.2 42 42 0 0 0 3.2-2.9l2.9-3.3 2.7-3.2 2.3-2.8 7.8-9.1.3-.2.6-.6.5-.5c.2-.2.2-.3.3-.3l2-3.3h.3l.4-.3.3-.2.3-.2c0-.1.2-.2.4-.4l.3-.4 1.3-1.7 1.4-2 1.3-2 1-1.7a18 18 0 0 0 .8-2.1 17.2 17.2 0 0 0 .7-2.1c.3-.7.5-1.5.8-2.2s1-1.5 1-2.2v-6.2a5.3 5.3 0 0 0-1.1-3.1 12.8 12.8 0 0 0-2.6-2.6 12.4 12.4 0 0 0-3.4-1.8 8.4 8.4 0 0 0-3.2-.7 22.7 22.7 0 0 0-5.9.7 12.2 12.2 0 0 0-5.2 2.6l-1.4 1.5-1.6 1.8-1.8 2.1a16.2 16.2 0 0 1-1.9 1.8 10.2 10.2 0 0 1-1.8 1.3 3.2 3.2 0 0 1-1.8.6 1.6 1.6 0 0 1-1.1-.5 1.6 1.6 0 0 1-.6-1.2v-.4l.2-.5c0-.2.1-.5.1-.8s.1-.5.2-.7v-.5a4.7 4.7 0 0 0-.2-1.7l-.6-1.4-.6-1.2a2.4 2.4 0 0 1-.3-1.2 1.2 1.2 0 0 0 .9-.3l.4-.6.5-.8a1.8 1.8 0 0 1 .8-.6h2.8a1.3 1.3 0 0 0 1-.4 4.6 4.6 0 0 1 .7-.7h.4c.1 0 .1.2.2.4s.2.3.2.4a.4.4 0 0 1 .4-.4l.7-.4 1.1-.6 1.3-.8 1.4-.8 1.1-.7.6-.4 2.1-1.3a6.4 6.4 0 0 1 1.8-.6l1.9-.2h6.5a4.7 4.7 0 0 0 1.5.6l1.5.3 1.6.3 1.5.5a16.6 16.6 0 0 1 4.6 3 19.7 19.7 0 0 1 3.3 4.3 20.4 20.4 0 0 1 1.7 5.1 25 25 0 0 1 .5 5.5v2.3z"/></symbol><symbol id="micropachycephalosaurus" viewBox="0 0 256 256"><path fill="#231f20" d="M132.4 151c-.3 0-.4.2-.4.6h-.1c-.3 0-.5.1-.5.5s.2.6.5.6.4-.2.4-.6h.1c.4 0 .5-.2.5-.5s-.1-.6-.5-.6zm1.5-.8a1.8 1.8 0 0 0-.9.8h.3a2.1 2.1 0 0 0 1.1-.4 1.8 1.8 0 0 0 .9-.8h-.3a1.5 1.5 0 0 0-1.1.4zm3-2.6a.5.5 0 0 0-.4.5h-.1c-.3 0-.4.2-.4.6h-.2c-.3 0-.4.2-.4.6s.1.5.4.5.5-.1.5-.5h.1c.3 0 .5-.2.5-.6a.5.5 0 0 0 .6-.6c0-.3-.2-.5-.6-.5zm23.4-6a8.9 8.9 0 0 1-1.3 1.4c.3.6.5 1 .9 1.1l1.1.2a2.4 2.4 0 0 0 1.4-.5 4.3 4.3 0 0 0 1.1-1.2l.8-1.5c.2-.5.3-1.2.5-1.2h-3.5c-.2 0-.5 1.1-1 1.7z"/><path fill="#231f20" d="M127.8-.3a128 128 0 1 0 128 128 128 128 0 0 0-128-128zm96 75.9l-1.6.4h-3.7a39.3 39.3 0 0 0-5.2 1.3 18.6 18.6 0 0 0-3.7 1.6 8.8 8.8 0 0 0-2.5 2.2 11.9 11.9 0 0 0-1.8 2.9c-.5 1.2-1 2.5-1.5 4l-1.6 5.1-1.2 3.5c-.4 1.1-.9 2.2-1.3 3.2a23 23 0 0 1-1.5 3.2l-1.7 3.2a48.6 48.6 0 0 1-2.7 4.1l-3 3.7-3.1 3.6c-1.1 1.2-2.1 2.5-3.2 3.9a11.1 11.1 0 0 0-1.3 2.7c-.3.9-.7 1.7-1 2.5a7.9 7.9 0 0 1-1.4 2.3 5.4 5.4 0 0 1-2.5 1.6l-1.3.5-2.1.7-2 .6-1.4.4a3.3 3.3 0 0 1 .2 2.1 2 2 0 0 1-.9.9l-1.2.6a1.8 1.8 0 0 0-.9 1l-2.3 6.8a2.5 2.5 0 0 1-1 1.5 5.8 5.8 0 0 1-1.8.8 13.6 13.6 0 0 1-2 .2 10.9 10.9 0 0 1-1.9-.1h-.9c-.4 0-.8.2-1.1 0s-.4-.3-.4-.8 0-.3.1-.4l.2-.3.3-.3c0-.1.1-.2.1-.4a.1.1 0 0 1-.1-.1 26 26 0 0 0-3.4 1.6l-3.4 2.1-3.4 2.2-3.3 2-.9.4-1.2.6a3.9 3.9 0 0 0-1 .8 1.3 1.3 0 0 0-.4 1v.6l1.8 1.6 2 1.8 2 1.6a9.4 9.4 0 0 0 2.2 1.2 4.8 4.8 0 0 0 1.8.7l1.9.6 1.9.6 1.7.9a10 10 0 0 1 1.4 1.5l1.1 1.5a7.6 7.6 0 0 0 1.1 1.4 4.7 4.7 0 0 0 1.5 1.3 3.8 3.8 0 0 0 1.7.6l2.1.7a5.2 5.2 0 0 1 1.8 1 2.1 2.1 0 0 1 .8 1.7c0 .1-.1.2-.1.3v.2L162 176l-1.1.4-1.2.2h-.7l-1.1-.6-1.7-1.1a12.8 12.8 0 0 1-1.7-1l-1.1-.7-.2-.2-.3-.5-.4-.6-.2-.4-2.3-4.6-1.1-.4-1.9-.8-2.1-.9-2.2-1-1.8-.8-1.1-.6-2.8-1.6a17.8 17.8 0 0 1-2.6-2.2 10.5 10.5 0 0 1-2-2.7 7.2 7.2 0 0 1-1.1-3.1l-.6.2-.6.3-.8.7-1.8 1.2-2.1 1.4-2.1 1.4-1.8 1-1 .6-6 3.5a27.8 27.8 0 0 0-4.6 3.5 17.3 17.3 0 0 0-3.6 4.4c-.9 1.8-.7 4-2.4 6.7v1.6a9.3 9.3 0 0 0 1.2 4.5 7.8 7.8 0 0 0 2.1 2.6 8.7 8.7 0 0 0 2.7 1.4 14.5 14.5 0 0 1 2.5 1 5.3 5.3 0 0 1 2 .9 6.3 6.3 0 0 1 .8 2.1h-13.4l-.2-.4c-.1-.2-.2-.1-.3-.2l-.5-.2-.7-.3a2.8 2.8 0 0 1-1.2-1.6 6.5 6.5 0 0 1-.5-2.1 19.4 19.4 0 0 1 .2-2.4c0-.8.3-1.4.3-2V181a4.7 4.7 0 0 1 .3-1.8c.2-.8.3-1.7.5-2.7s.5-2.1.8-3.2.6-2.2.8-3.2.5-1.9.7-2.6l.4-1.8a9.3 9.3 0 0 1 .7-2 12.4 12.4 0 0 1 1-2 13.9 13.9 0 0 0 4.5-2.5l3.3-3.3c1-1.2 2-2.3 2.9-3.5a15 15 0 0 1 3.5-3.1l1.4-.7 2.1-.8 2.3-1 2.2-1.1a7.3 7.3 0 0 0 1.6-1.4 2 2 0 0 0 .6-1.5v-1.4a1.7 1.7 0 0 0-.6-1.2l-.8-.3-1.2-.5-1.2-.6-.8-.3a9.4 9.4 0 0 1-2-1.2l-2.7-1.9a26.3 26.3 0 0 0-2.6-1.6 3.1 3.1 0 0 0-1.7-.6H107c-6.1 0-12-.1-17.8.1s-11.8.2-17.8.2c-4.5 0-8.8-.1-13-.3s-8.4-.7-12.5-1.4a85.5 85.5 0 0 1-12.1-3 66.2 66.2 0 0 1-11.8-5l-1.5-.8-1.6-1a8 8 0 0 1-1.3-1.3 2.4 2.4 0 0 1-.5-1.6 9.5 9.5 0 0 1 2.1.4l2.4 1 2.2.9 1.5.7 4.7 1.6 5.1 1.5a52.7 52.7 0 0 0 5.2 1 27.7 27.7 0 0 0 4.9.4h25.5l1.2-.2 2.6-.3 3.4-.5 3.6-.7 3.5-.6 2.7-.6 6.9-1.3 7.4-1.6c2.5-.6 5-1.3 7.3-2.1a45.1 45.1 0 0 0 6.7-2.9l3.9-1.8 3.8-1.6 4-1.3a25.9 25.9 0 0 1 4.2-.9h1l1.8-.2h1.8l1-.2 1.9-.3 3.4-.8 4.1-.9 4.1-.9c1.3-.3 2.4-.9 3.3-1.1s1.6-.8 1.9-.8h6.6a67.7 67.7 0 0 1 8 .8c2.6.2 5.2.5 7.9.5a10.2 10.2 0 0 0 5.1-1.3 18.3 18.3 0 0 0 4.5-3.5 28.3 28.3 0 0 0 4-5c1.2-1.9 2.2-3.8 3.2-5.7a55.3 55.3 0 0 0 2.6-5.6l1.8-4.9c.4-1.2.8-2.3 1.1-3.5s.7-2.1 1-3.1.8-1.8 1.2-2.6a7 7 0 0 1 1.8-2 7.3 7.3 0 0 1 2.7-1.7 12.7 12.7 0 0 1 3.8-.8h3.1c.7 1.7 1.7 1 3 1.4s2.4 1 3.6 1.5a21.6 21.6 0 0 1 3 1.8 3.1 3.1 0 0 1 1.2 2.2 2.4 2.4 0 0 1-.4 1.5 3.6 3.6 0 0 1-1.2.6z"/></symbol><symbol id="velociraptor" viewBox="0 0 256 256"><path fill="#231f20" d="M128.2-.3a128 128 0 1 0 128 128 128 128 0 0 0-128-128zm110.7 116.8h-7.5c-3 0-6.1-.1-9.2-.4l-9.1-1-9.2-1c-3-.3-6.1-.4-9.2-.4a128.9 128.9 0 0 0-16.4 1 70.8 70.8 0 0 0-15.9 3.7l-30.8 11.1a2.4 2.4 0 0 0-1.2 1.6 17.3 17.3 0 0 0-.8 2.7c-.3 1-.5 2-.7 2.9a6 6 0 0 1-.6 2 3.6 3.6 0 0 0 1.4 1.3l2.5 1.2 2.9 1.1 2.8 1.5a12.9 12.9 0 0 1 2.1 1.9 4.1 4.1 0 0 1 .8 2.5 1.7 1.7 0 0 1-.5 1.2l-1.2.9-1.6.7-1.7.8a4.3 4.3 0 0 0-1.2 1.1 2.5 2.5 0 0 0-.5 1.5 3.7 3.7 0 0 0 .8 2.5 7.8 7.8 0 0 0 2 1.6 17.1 17.1 0 0 0 2.3 1.3 7.9 7.9 0 0 1 2.2 1.8 25 25 0 0 1 2.1 3.5 22.9 22.9 0 0 1 1.2 3.7 23.3 23.3 0 0 1 .8 3.8c.2 1.4.1 2.7.3 4l1.3 1.3v7.1h.8l1.1.2 1 .2.5.3a3.2 3.2 0 0 1 .1.8 3.8 3.8 0 0 1-.1 1 5.6 5.6 0 0 1-.4 1.2 1.7 1.7 0 0 1-.6 1c-.2.3-.5.3-.9.3h-5.2c-.2 0-.5-.5-1-.8l-1.5-.9-1.6-.8c-.5-.3-.9-.8-1.1-.8H132a5.2 5.2 0 0 1 .6-3 4.4 4.4 0 0 1 1.7-1.6 6.5 6.5 0 0 1 2.1-.6l2.1-.4a4.3 4.3 0 0 0 1.7-.6 1.6 1.6 0 0 0 .6-1.4v-.6l-.9-1.8c-.4-.8-.8-1.6-1.3-2.4a12.8 12.8 0 0 0-1.5-2.5 7.3 7.3 0 0 0-1.6-1.8 3.6 3.6 0 0 0-1.3-.8l-1.8-1a7.8 7.8 0 0 1-1.8-1.1 2.1 2.1 0 0 1-1-1.1c-.3-.8-.6-1.8-.9-2.9s-.7-2.2-1.1-3.3a9 9 0 0 0-1.7-2.6 3.9 3.9 0 0 0-2.9-1 24.9 24.9 0 0 0-6.1.8 28.9 28.9 0 0 0-5.8 2.2 29.8 29.8 0 0 0-5 3.5 24.9 24.9 0 0 0-4 4.6c0 .2-.2.2-.3.2h-.2v-.2c-.1 0-.1-.1-.2-.3a1.4 1.4 0 0 0-.2-.6c0-.2-.1-.5-.1-.6s-.1-.3-.2-.4h-.3a1.3 1.3 0 0 0-1 .4l-.9 1.2-.8 1.3a3 3 0 0 1-.9 1 3.2 3.2 0 0 1-.6-1.6 8.6 8.6 0 0 1-.1-1.7 9.2 9.2 0 0 1 .4-2.9 15.2 15.2 0 0 1 .9-2.8c.3-1 .6-1.6.9-2.6a15.9 15.9 0 0 0 .4-2.8h-5c0-1.6.2-1.8.6-2.3a5.2 5.2 0 0 1 1.7-1.6 6.8 6.8 0 0 1 2.1-1l2.1-.2a15.6 15.6 0 0 1 3.1.2l2.9.4 2.9.5 3 .2h2.3a2.7 2.7 0 0 0-1.7-1.4l-2.6-.4-2.7-.2c-.9-.1-1.6.1-2.2-.2l-3.9-2.2h-.3a11.4 11.4 0 0 0-3.2 0 15.8 15.8 0 0 1-3.1.1 7.8 7.8 0 0 1-3.1-.7l-2.6-1.4-2.6-1.3a5.5 5.5 0 0 0-3-.7v6.1h1.6l1.1-.3.8-.6c.4-.2.4-.4.9-.6l.7-.2v2.8l2-.7c0 .1.2.3.2.5a2 2 0 0 0 .1.5 5.8 5.8 0 0 1-1.3 4 24.4 24.4 0 0 1-3.3 2.9 21.3 21.3 0 0 0-4.6-1.3l-4.8-.7v-7.8c0 .1-1.1.2-1.8.5a12.4 12.4 0 0 0-2 1l-2 1.2c-.4.4-.9.8-.9 1.2v7a9.6 9.6 0 0 0 3-.3l1.8-.6 1.3-.6a2.1 2.1 0 0 1 1.2-.3h.3a1.5 1.5 0 0 1 .3.7l.5 1.2a9.3 9.3 0 0 1 .4 1.3 8.4 8.4 0 0 1 .2 1 6.5 6.5 0 0 1-.4 1.9 11.8 11.8 0 0 1-1.1 1.9 6.5 6.5 0 0 1-1.6 1.3 3.2 3.2 0 0 1-1.8.6h-1.1l-3-.4a23.3 23.3 0 0 1-3.6-.8 14.2 14.2 0 0 1-3.3-1.2 2.5 2.5 0 0 1-1.5-2.1v-12.1l.9-.8 1.9-1.6 2.4-2.2a19.5 19.5 0 0 0 2.4-2.6 21.1 21.1 0 0 0 1.8-2.7 5.2 5.2 0 0 0 .8-2.6 3.7 3.7 0 0 0-1.2-2.7 12.1 12.1 0 0 0-2.8-2.1 23.3 23.3 0 0 0-3.3-1.4l-2.5-.9-1.4-9.2a16.8 16.8 0 0 0-.6-2.7 9.6 9.6 0 0 0-1.1-2.8 7.4 7.4 0 0 0-1.8-2.1 4 4 0 0 0-2.7-.9 9.8 9.8 0 0 0-3.6.5 15.5 15.5 0 0 0-3.3 1.5l-1.6 1-2.6 1.5-2.9 1.8-3 1.7c-1 .6-1.8 1.3-2.6 1.7s-1.3 1.1-1.6 1.1h-1.1l-1.7-.2-2.1-.4c-.7-.1-.9-.4-1.4-.8s-.3-.8-.3-1.3v-1.9c0-.6-.2-.9 0-1h1.6v-.4c.1-.3.1-.5.2-.8s.1-.6.1-.9a1.1 1.1 0 0 0 .1-.5c-.3-.4-.5-.7-.8-.8l-.9-.5a1.6 1.6 0 0 1-.7-.7 2.3 2.3 0 0 1-.3-1.3 5.2 5.2 0 0 1 .2-1.1 4.7 4.7 0 0 1 .7-1.2c.3-.4.3-.7.6-.9l.8-.3v.8c0 .5.5 1 .6 1.4a1.3 1.3 0 0 0 1.2.8 1.6 1.6 0 0 0 1.1-.5 5.2 5.2 0 0 0 1-1.1 11.5 11.5 0 0 0 .6-1.7c.2-.4.3.3.3-1.4H21a2.1 2.1 0 0 1-.9-.5l-1-.6-1-.8a2.1 2.1 0 0 1-.4-1.1 4.8 4.8 0 0 1 1.1-3.2 7.5 7.5 0 0 1 2.7-1.8 15 15 0 0 1 3.2-1l2.8-.8 2.3-1 3.3-1.5 3.4-1.6a10.7 10.7 0 0 1 2.2-1.1h13.7a7.6 7.6 0 0 1 3.9 1 12.6 12.6 0 0 1 3.1 2.5 27.8 27.8 0 0 1 2.6 3.4c.8 1.1 1.5 2.3 2.3 3.3a20.2 20.2 0 0 0 2.3 2.6 3.9 3.9 0 0 0 2.5 1 1 1 0 0 0 .8-.4c.1-.3.4-.4.8-.4a4 4 0 0 1 1.5.3l1.6.7 1.5.7a4.1 4.1 0 0 0 1.6.3 27.5 27.5 0 0 0 4.1-.2l4.1-.4 4.2-.5a27.5 27.5 0 0 1 4.1-.2 59 59 0 0 1 7.4.4 41.2 41.2 0 0 1 7.3 1.5l5 2 5.2 2.2a53.4 53.4 0 0 0 5.2 1.8 20.2 20.2 0 0 0 5.5.7h2.6c4.3-1 8.7-1.9 13-2.7s8.6-1.7 12.9-2.3 8.6-1.2 13-1.6 8.7-.6 13.2-.6h8.9a32.9 32.9 0 0 1 5.1 1l36.6 7.3h11.8c-.8 0-1.8 1-3.1 1.3a18.9 18.9 0 0 1-4.1.3z"/></symbol></svg>